<svg xmlns="http://www.w3.org/2000/svg" viewBox="0 0 228.7 255.89"><defs><style>.cls-1{font-size:13.13px;}.cls-1,.cls-10,.cls-11,.cls-22,.cls-9{fill:#fff;}.cls-1,.cls-10,.cls-11,.cls-23,.cls-24{font-family:Arial-BoldMT, Arial;font-weight:700;}.cls-2,.cls-23,.cls-24{fill:#19457c;}.cls-3{fill:#221e60;}.cls-4{fill:#183319;}.cls-5{fill:#642267;}.cls-6{fill:#a71e22;}.cls-7{fill:#ffce03;}.cls-8{fill:#ef3b24;}.cls-10{font-size:11.64px;}.cls-11{font-size:11.64px;}.cls-12,.cls-13,.cls-14,.cls-15,.cls-16,.cls-17,.cls-19,.cls-20,.cls-21{fill:none;}.cls-12{stroke:#642267;}.cls-12,.cls-13,.cls-14,.cls-15,.cls-16,.cls-17,.cls-19,.cls-20,.cls-21,.cls-22{stroke-miterlimit:10;}.cls-12,.cls-13,.cls-14,.cls-15,.cls-16,.cls-20{stroke-width:2px;}.cls-13{stroke:#27245f;}.cls-14,.cls-19{stroke:#1a331b;}.cls-15{stroke:#ef3d24;}.cls-16,.cls-17{stroke:#ffce03;}.cls-17,.cls-21{stroke-width:0.5px;}.cls-18{fill:#1a331b;}.cls-20,.cls-21,.cls-22{stroke:#a71e22;}.cls-22{stroke-width:0.25px;}.cls-23{font-size:8.73px;}.cls-24{font-size:9.77px;}</style></defs><title>action</title><g id="Layer_2" data-name="Layer 2"><g id="Layer_1-2" data-name="Layer 1"><text class="cls-1" transform="translate(197.79 124.53) rotate(90.41)"> </text><text class="cls-1" transform="translate(197.76 128.47) rotate(93.22)"> </text><text class="cls-1" transform="translate(197.53 132.4) rotate(96.04)"> </text><text class="cls-1" transform="translate(197.21 136.27) rotate(100.66)">P</text><text class="cls-1" transform="translate(195.6 145.01) rotate(107.57)">O</text><text class="cls-1" transform="translate(192.56 154.87) rotate(115.82)">W</text><text class="cls-1" transform="translate(186.99 166.07) rotate(123.57)">E</text><text class="cls-1" transform="translate(182.09 173.47) rotate(130.22)">R</text><text class="cls-1" transform="matrix(-0.72, 0.7, -0.7, -0.72, 175.74, 180.82)"> </text><text class="cls-1" transform="translate(172.93 183.58) rotate(137.83)"> </text><text class="cls-1" transform="matrix(-0.77, 0.63, -0.63, -0.77, 170.01, 186.21)"> </text><text class="cls-1" transform="matrix(-0.8, 0.6, -0.6, -0.8, 166.98, 188.69)"> </text><text class="cls-1" transform="matrix(-0.83, 0.55, -0.55, -0.83, 163.8, 191.04)"> </text><text class="cls-1" transform="matrix(-0.86, 0.51, -0.51, -0.86, 160.53, 193.21)"> </text><text class="cls-1" transform="matrix(-0.88, 0.47, -0.47, -0.88, 157.15, 195.22)"> </text><text class="cls-1" transform="matrix(-0.92, 0.38, -0.38, -0.92, 153.82, 197.17)">M</text><text class="cls-1" transform="translate(143.48 201.27) rotate(162.86)">I</text><text class="cls-1" transform="translate(139.83 202.5) rotate(167.47)">S</text><text class="cls-1" transform="translate(131.12 204.42) rotate(173.87)">S</text><text class="cls-1" transform="translate(122.19 205.27) rotate(178.46)">I</text><text class="cls-1" transform="matrix(-1, -0.06, 0.06, -1, 118.33, 205.51)">O</text><text class="cls-1" transform="translate(108 204.83) rotate(-169.28)">N</text><text class="cls-1" transform="translate(98.53 202.91) rotate(-164.42)"> </text><text class="cls-1" transform="translate(94.74 201.84) rotate(-161.58)"> </text><text class="cls-1" transform="translate(90.99 200.59) rotate(-158.72)"> </text><text class="cls-1" transform="matrix(-0.91, -0.41, 0.41, -0.91, 87.35, 199.16)"> </text><text class="cls-1" transform="matrix(-0.89, -0.45, 0.45, -0.89, 83.76, 197.55)"> </text><text class="cls-1" transform="translate(80.25 195.75) rotate(-150.16)"> </text><text class="cls-1" transform="matrix(-0.84, -0.54, 0.54, -0.84, 76.85, 193.8)"> </text><text class="cls-1" transform="matrix(-0.81, -0.58, 0.58, -0.81, 73.54, 191.66)"> </text><text class="cls-1" transform="matrix(-0.76, -0.65, 0.65, -0.76, 70.32, 189.56)">M</text><text class="cls-1" transform="matrix(-0.67, -0.74, 0.74, -0.67, 62, 182.26)">E</text><text class="cls-1" transform="translate(56.01 175.63) rotate(-125.37)">A</text><text class="cls-1" transform="translate(50.46 167.79) rotate(-118.41)">N</text><text class="cls-1" transform="translate(45.97 159.21) rotate(-113.5)">I</text><text class="cls-1" transform="matrix(-0.32, -0.95, 0.95, -0.32, 44.32, 155.71)">N</text><text class="cls-1" transform="translate(41.24 146.6) rotate(-101.41)">G</text><text class="cls-1" transform="matrix(-0.11, -0.99, 0.99, -0.11, 39.34, 136.38)"> </text><text class="cls-1" transform="translate(38.91 132.47) rotate(-93.48)"> </text><text class="cls-1" transform="matrix(-0.01, -1, 1, -0.01, 38.68, 128.53)"> </text><text class="cls-1" transform="translate(38.64 124.63) rotate(-87.87)"> </text><text class="cls-1" transform="translate(38.79 120.69) rotate(-85.04)"> </text><text class="cls-1" transform="translate(39.14 116.76) rotate(-82.22)"> </text><text class="cls-1" transform="translate(39.68 112.85) rotate(-79.39)"> </text><circle class="cls-2" cx="118.22" cy="125.78" r="97"/><path class="cls-3" d="M115.67,124.3,68.45,42.51Q69.7,41.76,71,41a97,97,0,0,0-49.77,84.74c0-.5,0-1,0-1.48Z"/><path class="cls-4" d="M115.67,127.27H21.23c0-.49,0-1,0-1.48a97,97,0,0,0,47.28,83.3Z"/><path class="cls-5" d="M118.21,122.85,165.4,41A97.08,97.08,0,0,0,71,41Z"/><path class="cls-2" d="M165.4,41q1.28.71,2.54,1.46Q166.68,41.73,165.4,41Z"/><path class="cls-6" d="M215.2,127.27H120.76L168,209.05q-1.26.75-2.54,1.47a97,97,0,0,0,49.77-84.74C215.22,126.28,215.2,126.77,215.2,127.27Z"/><path class="cls-7" d="M167.93,42.48,120.76,124.3H215.2c0,.49,0,1,0,1.48A97,97,0,0,0,167.93,42.48Z"/><path class="cls-2" d="M71,210.55q-1.28-.71-2.54-1.46Q69.75,209.83,71,210.55Z"/><path class="cls-8" d="M118.22,128.72,71,210.55a97.08,97.08,0,0,0,94.41,0Z"/><circle class="cls-9" cx="118.22" cy="125.78" r="71.87"/><text class="cls-10" transform="translate(30.34 130.9) rotate(85.61)"> </text><text class="cls-10" transform="matrix(0.14, 0.99, -0.99, 0.14, 30.55, 134.47)">S</text><text class="cls-10" transform="matrix(0.23, 0.97, -0.97, 0.23, 31.76, 142.61)">T</text><text class="cls-10" transform="translate(33.49 149.98) rotate(71.39)">R</text><text class="cls-10" transform="translate(36.37 158.45) rotate(65.55)">U</text><text class="cls-10" transform="translate(40.09 166.56) rotate(59.71)">C</text><text class="cls-10" transform="matrix(0.58, 0.81, -0.81, 0.58, 44.61, 174.2)">T</text><text class="cls-10" transform="matrix(0.66, 0.75, -0.75, 0.66, 49.04, 180.39)">U</text><text class="cls-10" transform="matrix(0.73, 0.68, -0.68, 0.73, 54.93, 187.09)">R</text><text class="cls-10" transform="matrix(0.79, 0.61, -0.61, 0.79, 61.45, 193.14)">E</text><text class="cls-10" transform="translate(67.9 198.01) rotate(33.88)"> </text><text class="cls-10" transform="translate(70.75 199.92) rotate(31.65)"> </text><text class="cls-10" transform="translate(73.69 201.73) rotate(29.4)"> </text><text class="cls-10" transform="matrix(0.89, 0.46, -0.46, 0.89, 76.67, 203.41)"> </text><text class="cls-10" transform="translate(79.74 204.97) rotate(24.9)"> </text><text class="cls-10" transform="matrix(0.93, 0.36, -0.36, 0.93, 82.95, 206.55)">R</text><text class="cls-10" transform="translate(91.29 209.69) rotate(15.23)">E</text><text class="cls-10" transform="translate(99.27 211.83) rotate(9.84)">S</text><text class="cls-10" transform="translate(107.43 213.25) rotate(4.04)">O</text><text class="cls-10" transform="translate(116.98 213.88) rotate(-1.95)">U</text><text class="cls-10" transform="translate(125.93 213.55) rotate(-7.74)">R</text><text class="cls-10" transform="translate(134.76 212.32) rotate(-13.51)">C</text><text class="cls-10" transform="translate(143.41 210.2) rotate(-19.09)">E</text><text class="cls-10" transform="matrix(0.91, -0.41, 0.41, 0.91, 151.18, 207.5)">S</text><text class="cls-10" transform="matrix(0.88, -0.47, 0.47, 0.88, 158.53, 204.06)"> </text><text class="cls-10" transform="translate(161.55 202.43) rotate(-30.54)"> </text><text class="cls-10" transform="matrix(0.84, -0.54, 0.54, 0.84, 164.51, 200.67)"> </text><text class="cls-10" transform="translate(167.39 198.82) rotate(-35.04)"> </text><text class="cls-10" transform="translate(170.2 196.84) rotate(-37.3)"> </text><text class="cls-10" transform="translate(173.09 194.72) rotate(-41.11)">E</text><text class="cls-10" transform="translate(179.26 189.3) rotate(-46.45)">X</text><text class="cls-10" transform="translate(184.8 183.39) rotate(-50.98)">I</text><text class="cls-10" transform="translate(187.11 180.67) rotate(-53.92)">S</text><text class="cls-10" transform="translate(191.93 174.01) rotate(-59.05)">T</text><text class="cls-10" transform="translate(195.81 167.52) rotate(-64.21)">E</text><text class="cls-10" transform="translate(199.41 160.06) rotate(-69.85)">N</text><text class="cls-10" transform="matrix(0.25, -0.97, 0.97, 0.25, 202.45, 151.68)">C</text><text class="cls-10" transform="translate(204.62 143.03) rotate(-81.29)">E</text><text class="cls-11" transform="matrix(0.06, -1, 1, 0.06, 40.69, 121.28)"> </text><text class="cls-11" transform="translate(40.89 117.78) rotate(-84.17)"> </text><text class="cls-11" transform="matrix(0.15, -0.99, 0.99, 0.15, 41.25, 114.32)"> </text><text class="cls-11" transform="matrix(0.19, -0.98, 0.98, 0.19, 41.77, 110.85)"> </text><text class="cls-11" transform="matrix(0.26, -0.97, 0.97, 0.26, 42.34, 107.48)">P</text><text class="cls-11" transform="matrix(0.37, -0.93, 0.93, 0.37, 44.38, 99.82)">O</text><text class="cls-11" transform="translate(47.68 91.27) rotate(-61.1)">W</text><text class="cls-11" transform="translate(53.13 81.62) rotate(-54.08)">E</text><text class="cls-11" transform="matrix(0.67, -0.74, 0.74, 0.67, 57.76, 75.21)">R</text><text class="cls-11" transform="translate(63.6 68.88) rotate(-43.63)"> </text><text class="cls-11" transform="matrix(0.75, -0.66, 0.66, 0.75, 66.13, 66.47)"> </text><text class="cls-11" transform="matrix(0.78, -0.62, 0.62, 0.78, 68.77, 64.18)"> </text><text class="cls-11" transform="matrix(0.81, -0.59, 0.59, 0.81, 71.5, 62)"> </text><text class="cls-11" transform="matrix(0.83, -0.55, 0.55, 0.83, 74.34, 59.95)"> </text><text class="cls-11" transform="matrix(0.86, -0.51, 0.51, 0.86, 77.24, 58.04)"> </text><text class="cls-11" transform="translate(80.25 56.24) rotate(-28.29)"> </text><text class="cls-11" transform="translate(83.32 54.6) rotate(-25.7)"> </text><text class="cls-11" transform="matrix(0.92, -0.39, 0.39, 0.92, 86.48, 53.09)"> </text><text class="cls-11" transform="translate(89.68 51.72) rotate(-20.53)"> </text><text class="cls-11" transform="matrix(0.96, -0.27, 0.27, 0.96, 92.86, 50.4)">M</text><text class="cls-11" transform="translate(102.38 47.89) rotate(-10.72)">I</text><text class="cls-11" transform="translate(105.77 47.17) rotate(-6.53)">S</text><text class="cls-11" transform="translate(113.64 46.28) rotate(-0.72)">S</text><text class="cls-11" transform="translate(121.6 46.27) rotate(3.44)">I</text><text class="cls-11" transform="translate(125.04 46.36) rotate(8.07)">O</text><text class="cls-11" transform="translate(134.11 47.67) rotate(14.55)">N</text><text class="cls-11" transform="translate(142.42 49.94) rotate(18.98)"> </text><text class="cls-11" transform="translate(145.73 51.09) rotate(21.57)"> </text><text class="cls-11" transform="translate(148.97 52.38) rotate(24.15)"> </text><text class="cls-11" transform="matrix(0.89, 0.45, -0.45, 0.89, 152.14, 53.8)"> </text><text class="cls-11" transform="translate(155.28 55.39) rotate(29.32)"> </text><text class="cls-11" transform="translate(158.3 57.09) rotate(31.9)"> </text><text class="cls-11" transform="translate(161.26 58.94) rotate(34.49)"> </text><text class="cls-11" transform="translate(164.16 60.94) rotate(37.09)"> </text><text class="cls-11" transform="matrix(0.74, 0.67, -0.67, 0.74, 166.96, 62.9)">M</text><text class="cls-11" transform="matrix(0.66, 0.75, -0.75, 0.66, 174.22, 69.48)">E</text><text class="cls-11" transform="translate(179.47 75.41) rotate(54.39)">A</text><text class="cls-11" transform="translate(184.44 82.36) rotate(60.69)">N</text><text class="cls-11" transform="matrix(0.42, 0.91, -0.91, 0.42, 188.56, 89.92)">I</text><text class="cls-11" transform="matrix(0.35, 0.94, -0.94, 0.35, 190.09, 93)">N</text><text class="cls-11" transform="translate(193.08 101.01) rotate(76.16)">G</text><text class="cls-11" transform="translate(195.16 110) rotate(80.81)"> </text><text class="cls-11" transform="translate(195.72 113.44) rotate(83.37)"> </text><text class="cls-11" transform="translate(196.12 116.93) rotate(85.94)"> </text><text class="cls-11" transform="matrix(0.03, 1, -1, 0.03, 196.36, 120.4)"> </text><text class="cls-11" transform="translate(196.44 123.9) rotate(91.05)"> </text><text class="cls-11" transform="translate(196.37 127.38) rotate(93.59)"> </text><text class="cls-11" transform="translate(196.15 130.88) rotate(96.15)"> </text><circle class="cls-2" cx="118.22" cy="125.78" r="20.84"/><path class="cls-9" d="M167.93,42.48q-1.26-.75-2.54-1.46l-47.18,81.83L71,41q-1.28.72-2.54,1.47l47.22,81.79H21.23c0,.49,0,1,0,1.48s0,1,0,1.48h94.44L68.5,209.08q1.26.75,2.54,1.46l47.18-81.83,47.23,81.81q1.28-.72,2.54-1.47l-47.22-81.79H215.2c0-.49,0-1,0-1.48s0-1,0-1.48H120.76Z"/><g id="_1F2xlA.tif" data-name="1F2xlA.tif"><path class="cls-5" d="M121.39,87.26a3.39,3.39,0,0,1,.49,1.11c0,.13.09.16.21.19l2.65.62a.29.29,0,0,1,.17.09l-1.91.45-.88.2a.29.29,0,0,0-.26.24,3.41,3.41,0,0,1-2.49,2.45.23.23,0,0,0-.19.21c-.2.88-.41,1.75-.62,2.63,0,.06,0,.12-.08.24l-.46-2s0-.09,0-.14c-.09-.31,0-.74-.29-.92s-.62-.22-.91-.39c-.1-.06-.15,0-.21.08l-2.34,1.92-1.59,1.3s-.06.08-.15.06l.85-1.18,2.19-3a.24.24,0,0,0,0-.32,2.87,2.87,0,0,1-.41-1,.25.25,0,0,0-.22-.21l-2.63-.62s-.08,0-.11-.07l1.39-.32,1.33-.31a.3.3,0,0,0,.25-.24,3.41,3.41,0,0,1,2.44-2.47.31.31,0,0,0,.25-.27c.21-.92.43-1.83.66-2.79a4.08,4.08,0,0,1,.21.79q.25,1,.48,2.06a.23.23,0,0,0,.2.2,2.73,2.73,0,0,1,.91.39,7.42,7.42,0,0,1-.83.68,2.5,2.5,0,0,0-2.92.74,2.41,2.41,0,0,0-.24,2.66l.4-.55c.34-.45.63-.93,1-1.35l1.62,1.63-1.75,1.47a2.48,2.48,0,0,0,3.18-3.39A8.08,8.08,0,0,1,121.39,87.26Z"/><path class="cls-5" d="M121.39,87.26a8.08,8.08,0,0,0-.63.88l-1.11,1.53a1.27,1.27,0,0,1-.32.39l-1.62-1.63.1-.1,1.66-1.39a7.42,7.42,0,0,0,.83-.68l2.11-1.73L124.23,83c.07-.05.12-.13.24-.15a.48.48,0,0,1-.14.24l-2.87,4Z"/></g><circle class="cls-12" cx="118.54" cy="89.19" r="10.62"/><circle class="cls-13" cx="85.56" cy="109.76" r="10.62"/><polygon class="cls-3" points="76.33 108.73 82.55 105.95 86.52 107.87 84.56 108.46 90.18 109.97 88.26 110.43 94.48 113.44 84.69 112.35 86.29 111.2 80.26 110.66 82.96 109.69 76.33 108.73"/><circle class="cls-14" cx="86.95" cy="143.15" r="10.62"/><circle class="cls-15" cx="118.54" cy="161.37" r="10.62"/><path class="cls-8" d="M120.32,166.66c0-.59,0-1.19,0-1.78a.31.31,0,0,0-.18-.32c-.33-.18-.65-.37-1-.56s-.57-.29-.85-.45a.56.56,0,0,1,.52-1c.33.16.66.34,1,.53a2.39,2.39,0,0,0,1.31.26c.38,0,.76,0,1.14,0a2.75,2.75,0,0,0,.84-.19c.36-.15.69-.38,1-.56a.57.57,0,0,1,.74.11.56.56,0,0,1,0,.73.91.91,0,0,1-.31.21c-.55.3-1.1.61-1.65.9a.27.27,0,0,0-.17.29c0,1.18,0,2.36,0,3.54,0,.48-.22.69-.7.69H121a.58.58,0,0,1-.66-.67Q120.32,167.54,120.32,166.66Zm1.22-.26c.16-.19.32-.35.45-.53a.29.29,0,0,0,0-.2c-.07-.42-.16-.84-.22-1.26,0-.11,0-.18-.15-.15s-.3-.09-.34.14c-.07.42-.16.84-.23,1.26a.35.35,0,0,0,0,.24C121.24,166.06,121.38,166.22,121.54,166.4Zm-.34-2.85a3.07,3.07,0,0,0,.07.37.23.23,0,0,0,.12.14c.3.08.39,0,.46-.29,0-.06.08-.1.14-.18Z"/><path class="cls-8" d="M122.7,162a1.15,1.15,0,0,1-1.07,1.15,1.16,1.16,0,1,1-.07-2.32A1.15,1.15,0,0,1,122.7,162Z"/><path class="cls-8" d="M122.52,157.48a3.43,3.43,0,1,1-6.85-.07,3.45,3.45,0,0,1,3.47-3.39A3.41,3.41,0,0,1,122.52,157.48Zm-6.12,0a2.71,2.71,0,0,0,2.71,2.72,2.76,2.76,0,0,0,2.71-2.7,2.72,2.72,0,0,0-2.71-2.72A2.67,2.67,0,0,0,116.4,157.46Z"/><path class="cls-8" d="M118.89,157.29c0-.58,0-1.1,0-1.62,0-.2,0-.41.26-.4s.25.23.26.42c0,.64,0,1.28,0,1.92,0,.27-.08.4-.39.39-.52,0-1,0-1.57,0-.25,0-.42-.11-.43-.35s.17-.36.42-.36Z"/><path class="cls-8" d="M113,164.75v-1.63a2.15,2.15,0,0,1-1.12-.66,1.66,1.66,0,0,1-.36-1.07,1.52,1.52,0,0,1,.4-1.07,1.63,1.63,0,0,1,1.07-.5v-.39h.57v.39a1.67,1.67,0,0,1,1,.42,1.63,1.63,0,0,1,.47.93l-1,.13a.79.79,0,0,0-.47-.62v1.52a2.52,2.52,0,0,1,1.28.66,1.55,1.55,0,0,1,.34,1,1.73,1.73,0,0,1-.43,1.19,1.88,1.88,0,0,1-1.19.59v.73H113v-.71a1.8,1.8,0,0,1-1.1-.5,2.07,2.07,0,0,1-.54-1.19l1-.11a1.3,1.3,0,0,0,.23.54A1.07,1.07,0,0,0,113,164.75Zm0-4.09a.73.73,0,0,0-.37.27.69.69,0,0,0-.14.41.65.65,0,0,0,.12.38.87.87,0,0,0,.38.29Zm.57,4.15a.79.79,0,0,0,.48-.27.76.76,0,0,0,.18-.51.69.69,0,0,0-.15-.45,1,1,0,0,0-.51-.29Z"/><circle class="cls-16" cx="149.68" cy="108.57" r="10.62"/><g id="_7h2xZe.tif" data-name="7h2xZe.tif"><path class="cls-7" d="M155.43,104.33a.43.43,0,0,0-.39.21c0,.1-.09.19-.13.29a.26.26,0,0,1-.28.19.28.28,0,0,1-.25-.27.77.77,0,0,1,.17-.45,1,1,0,0,1,.66-.38,1.25,1.25,0,0,1,.74.08.79.79,0,0,1,.49.61.69.69,0,0,1-.21.62l-.47.45a.43.43,0,0,0-.12.22c0,.06,0,.11,0,.17a.21.21,0,0,1-.17.16.25.25,0,0,1-.31-.25.73.73,0,0,1,.23-.59l.38-.35a.43.43,0,0,0,.15-.27.36.36,0,0,0-.14-.33A.49.49,0,0,0,155.43,104.33Z"/><path class="cls-7" d="M155.7,106.73a.31.31,0,0,1-.62,0,.31.31,0,0,1,.32-.31A.3.3,0,0,1,155.7,106.73Z"/></g><circle class="cls-17" cx="155.35" cy="105.38" r="2.28"/><g id="_7h2xZe.tif-2" data-name="7h2xZe.tif"><path class="cls-7" d="M145.12,106.35a.78.78,0,0,0-.7.38c-.09.17-.17.35-.24.53a.48.48,0,0,1-.51.34.51.51,0,0,1-.45-.49,1.39,1.39,0,0,1,.31-.82,1.85,1.85,0,0,1,1.2-.7,2.26,2.26,0,0,1,1.35.15,1.44,1.44,0,0,1,.88,1.1,1.24,1.24,0,0,1-.37,1.13c-.28.28-.57.54-.85.81a.78.78,0,0,0-.22.4c0,.1,0,.2-.08.3a.38.38,0,0,1-.31.28.45.45,0,0,1-.57-.45,1.33,1.33,0,0,1,.42-1.06l.69-.64a.77.77,0,0,0,.28-.49.66.66,0,0,0-.26-.59A.89.89,0,0,0,145.12,106.35Z"/><path class="cls-7" d="M145.61,110.69a.56.56,0,0,1-1.13,0,.56.56,0,0,1,.57-.56A.55.55,0,0,1,145.61,110.69Z"/></g><circle class="cls-17" cx="144.98" cy="108.25" r="4.14"/><g id="_7h2xZe.tif-3" data-name="7h2xZe.tif"><path class="cls-7" d="M152.94,113.4a.45.45,0,0,0-.4.22c-.05.1-.1.2-.14.31a.27.27,0,0,1-.29.19.29.29,0,0,1-.26-.28.8.8,0,0,1,.18-.47,1.06,1.06,0,0,1,.69-.4,1.3,1.3,0,0,1,.77.09.82.82,0,0,1,.51.63.71.71,0,0,1-.21.65l-.49.46a.45.45,0,0,0-.13.23c0,.06,0,.12,0,.17a.22.22,0,0,1-.18.16.26.26,0,0,1-.33-.26.76.76,0,0,1,.24-.61l.39-.37a.44.44,0,0,0,.16-.28.38.38,0,0,0-.15-.34A.51.51,0,0,0,152.94,113.4Z"/><path class="cls-7" d="M153.22,115.9a.32.32,0,0,1-.65,0,.32.32,0,0,1,.33-.32A.32.32,0,0,1,153.22,115.9Z"/></g><circle class="cls-17" cx="152.86" cy="114.49" r="2.37"/><line class="cls-17" x1="152.03" y1="106.56" x2="149.03" y2="107.42"/><polygon class="cls-7" points="150.84 106.02 151.89 106.6 151.31 107.65 152 107.45 152.58 106.4 151.53 105.82 150.84 106.02"/><line class="cls-17" x1="150.27" y1="112.46" x2="147.94" y2="110.87"/><polygon class="cls-7" points="149.92 111.19 150.15 112.37 148.97 112.6 149.57 113 150.75 112.78 150.52 111.6 149.92 111.19"/><g id="qqsZNd.tif"><path class="cls-18" d="M86.85,150.47a1.34,1.34,0,0,1,.34,0q-1.07-2.83-2.16-5.65c-.13-.33-.29-.65-.45-1l2.68-1.08-.66-1.68-5.43,2.14.66,1.68,2.19-.84c-.18.39-.32.64-.42.91q-1,2.51-1.92,5l-.21.53h.05a1.31,1.31,0,0,1,.4.07l1.84-4.79c.06-.16.15-.31.22-.46l.13,0V146c0,1.4,0,2.8,0,4.2a1.38,1.38,0,0,1,.3,0h.14c0-1.41,0-2.82,0-4.23,0-.18,0-.36,0-.54a1,1,0,0,1,.34.48l1.78,4.61Z"/><path class="cls-18" d="M89.23,142.47l-1.48.59-1-2.44,1.48-.59Z"/><path class="cls-18" d="M79.76,144.2l1.25-.5.44,1-1.28.51Z"/><path class="cls-18" d="M78.91,145.69l-.37-1,1-.21.26.64Z"/><path class="cls-19" d="M94.87,150s-7.4-4.63-16.68.34"/></g><path class="cls-18" d="M93.37,138.1a2.6,2.6,0,1,1-3.14-3.19,2.25,2.25,0,0,0-.8,2,2.19,2.19,0,0,0,.73,1.39A2.26,2.26,0,0,0,93.37,138.1Z"/><circle class="cls-20" cx="149.11" cy="144.6" r="10.62"/><g id="cFtGXz.tif"><path class="cls-6" d="M146.83,146.3h-.35a.09.09,0,0,0-.07.05.22.22,0,0,1-.21.15h-4c-.13,0-.25,0-.29-.17s0,0-.05,0h-.36v-.21l.12,0,2.43-1.12a.21.21,0,0,1,.19,0l1.89.88.66.29Z"/><path class="cls-6" d="M141.53,149.92a.28.28,0,0,1,.29-.15h4.72a.28.28,0,0,1,.29.15v.25h-5.3Z"/><path class="cls-6" d="M144,146.72s0,.09,0,.13c0,.73,0,1.46,0,2.19,0,.09,0,.13.11.12h.2c.09,0,.12,0,.12-.11,0-.29,0-.59,0-.88s0-.88,0-1.32v-.12H145s0,.09,0,.13c0,.73,0,1.45,0,2.18,0,.1,0,.14.13.13h.3v-2.44H146s0,0,0,0a.32.32,0,0,1,0,.09q0,1.09,0,2.18c0,.07,0,.13.09.12.29,0,.34.1.31.38H142a1.79,1.79,0,0,1,0-.22c0-.1.1-.15.21-.16s.19,0,.19-.19c0-.71,0-1.41,0-2.12,0-.11,0-.14.13-.13H143v2.44h.37s0,0,.05-.06a.84.84,0,0,0,0-.14q0-1,0-2.1s0-.08,0-.13Z"/></g><line class="cls-21" x1="151.06" y1="146.44" x2="149.46" y2="144.85"/><polygon class="cls-6" points="150.95 145.13 150.96 146.33 149.76 146.34 150.27 146.84 151.47 146.84 151.47 145.64 150.95 145.13"/><line class="cls-21" x1="147.59" y1="146.46" x2="149.46" y2="144.85"/><polygon class="cls-6" points="148.9 146.45 147.71 146.37 147.79 145.17 147.25 145.64 147.16 146.84 148.36 146.92 148.9 146.45"/><line class="cls-21" x1="149.45" y1="142.96" x2="149.46" y2="144.85"/><polygon class="cls-6" points="148.61 143.96 149.45 143.1 150.31 143.95 150.3 143.23 149.45 142.39 148.61 143.24 148.61 143.96"/><rect class="cls-22" x="152.37" y="144.87" width="4.49" height="4.97"/><rect class="cls-22" x="152.13" y="144.63" width="4.49" height="4.97"/><rect class="cls-6" x="154.81" y="147.95" width="1.34" height="1.12"/><rect class="cls-6" x="152.61" y="148.07" width="1.97" height="0.18"/><rect class="cls-6" x="152.61" y="148.44" width="1.97" height="0.18"/><rect class="cls-6" x="152.61" y="148.8" width="1.97" height="0.18"/><rect class="cls-6" x="152.53" y="146.51" width="1.34" height="1.12"/><rect class="cls-6" x="154.17" y="146.63" width="1.97" height="0.18"/><rect class="cls-6" x="154.17" y="146.99" width="1.97" height="0.18"/><rect class="cls-6" x="154.17" y="147.35" width="1.97" height="0.18"/><rect class="cls-6" x="152.53" y="145.91" width="3.61" height="0.18"/><rect class="cls-6" x="152.53" y="145.55" width="3.61" height="0.18"/><rect class="cls-6" x="152.53" y="145.19" width="3.61" height="0.18"/><g id="c2dbYM.tif"><path class="cls-6" d="M151.5,140.11q0,.83,0,1.66a.23.23,0,1,1-.47,0s0,0,0,0q0-.94,0-1.87s0-.05-.05,0h-.12s0,0,0,0,0,0,0,0q0,.95,0,1.89a.23.23,0,0,1-.18.24.23.23,0,0,1-.28-.2.77.77,0,0,1,0-.08q0-1.64,0-3.29c0-.06,0-.05-.05-.05h-.12s0,0,0,0a.28.28,0,0,1,0,0q0,.59,0,1.18a.19.19,0,0,1-.06.16.15.15,0,0,1-.16,0,.17.17,0,0,1-.1-.15.24.24,0,0,1,0,0c0-.43,0-.87,0-1.3a.53.53,0,0,1,.51-.52h1.16a.53.53,0,0,1,.5.46,1.07,1.07,0,0,1,0,.13q0,.6,0,1.21a.31.31,0,0,1,0,.09.16.16,0,0,1-.31,0,.32.32,0,0,1,0-.08c0-.4,0-.8,0-1.19,0,0,0,0,0,0h-.13s0,0,0,0,0,0,0,0v1.66Z"/><path class="cls-6" d="M150.94,137.71a.41.41,0,0,1-.42-.42.42.42,0,0,1,.83,0A.41.41,0,0,1,150.94,137.71Z"/></g><path class="cls-6" d="M147.74,138.44h-.15s0,0,0,0l-.16.54-.15.5a.19.19,0,0,1-.13.14.17.17,0,0,1-.21-.2c0-.11.06-.21.09-.32l.27-.9a.53.53,0,0,1,.48-.36h.86a.61.61,0,0,1,.54.41l.34,1.11a.22.22,0,0,1,0,.21.16.16,0,0,1-.27,0,.36.36,0,0,1,0-.09l-.3-1s0,0,0,0h-.15l.1.34.43,1.54s0,0,0,0h-.42c-.05,0-.05,0-.05.05q0,.72,0,1.43a.19.19,0,0,1-.27.2.18.18,0,0,1-.12-.18q0-.73,0-1.46s0-.05,0,0h-.1s0,0,0,0q0,.71,0,1.42a.34.34,0,0,1,0,.11.19.19,0,0,1-.2.13.18.18,0,0,1-.18-.17s0,0,0-.06q0-.71,0-1.41s0,0,0,0h-.43s0,0,0,0l.51-1.84Z"/><path class="cls-6" d="M148.22,137.71a.42.42,0,1,1,.42-.4A.42.42,0,0,1,148.22,137.71Z"/><text class="cls-23" transform="translate(63.93 122.14) rotate(-86.67)"> </text><text class="cls-23" transform="translate(64.09 119.52) rotate(-83.93)"> </text><text class="cls-23" transform="translate(64.37 116.92) rotate(-81.2)"> </text><text class="cls-23" transform="translate(64.78 114.32) rotate(-78.45)"> </text><text class="cls-23" transform="translate(65.16 111.77) rotate(-72.73)">W</text><text class="cls-23" transform="translate(67.69 103.87) rotate(-65.02)">H</text><text class="cls-23" transform="translate(70.39 98.05) rotate(-57.99)">O</text><text class="cls-23" transform="matrix(0.62, -0.78, 0.78, 0.62, 74.08, 92.23)">?</text><text class="cls-23" transform="translate(77.56 87.97) rotate(-47.25)"> </text><text class="cls-23" transform="translate(79.33 86.05) rotate(-44.54)"> </text><text class="cls-23" transform="translate(81.2 84.21) rotate(-41.25)"> </text><text class="cls-23" transform="translate(83.17 82.46) rotate(-39.12)"> </text><text class="cls-23" transform="matrix(0.81, -0.59, 0.59, 0.81, 85.21, 80.81)"> </text><text class="cls-23" transform="matrix(0.83, -0.55, 0.55, 0.83, 87.33, 79.25)"> </text><text class="cls-23" transform="matrix(0.86, -0.51, 0.51, 0.86, 89.5, 77.81)"> </text><text class="cls-23" transform="matrix(0.88, -0.47, 0.47, 0.88, 91.76, 76.47)"> </text><text class="cls-23" transform="translate(94.07 75.24) rotate(-25.35)"> </text><text class="cls-23" transform="translate(96.42 74.13) rotate(-22.6)"> </text><text class="cls-23" transform="matrix(0.94, -0.34, 0.34, 0.94, 98.85, 73.13)"> </text><text class="cls-23" transform="translate(101.31 72.24) rotate(-17.06)"> </text><text class="cls-23" transform="translate(103.72 71.36) rotate(-11.33)">W</text><text class="cls-23" transform="translate(111.9 69.79) rotate(-3.63)">H</text><text class="cls-23" transform="translate(118.32 69.41) rotate(2.82)">E</text><text class="cls-23" transform="translate(124.22 69.69) rotate(9.23)">R</text><text class="cls-23" transform="matrix(0.96, 0.27, -0.27, 0.96, 130.55, 70.74)">E</text><text class="cls-23" transform="translate(136.26 72.36) rotate(21.66)">?</text><text class="cls-23" transform="translate(141.37 74.45) rotate(25.95)"> </text><text class="cls-23" transform="matrix(0.88, 0.48, -0.48, 0.88, 143.7, 75.59)"> </text><text class="cls-23" transform="matrix(0.85, 0.52, -0.52, 0.85, 146.01, 76.86)"> </text><text class="cls-23" transform="translate(148.24 78.23) rotate(34.24)"> </text><text class="cls-23" transform="translate(150.4 79.71) rotate(37)"> </text><text class="cls-23" transform="translate(152.5 81.3) rotate(39.77)"> </text><text class="cls-23" transform="translate(154.5 82.97) rotate(42.5)"> </text><text class="cls-23" transform="matrix(0.7, 0.71, -0.71, 0.7, 156.44, 84.75)"> </text><text class="cls-23" transform="translate(158.28 86.58) rotate(48.75)"> </text><text class="cls-23" transform="matrix(0.63, 0.77, -0.77, 0.63, 160.03, 88.56)"> </text><text class="cls-23" transform="matrix(0.55, 0.83, -0.83, 0.55, 161.76, 90.45)">W</text><text class="cls-23" transform="translate(166.31 97.41) rotate(64.08)">H</text><text class="cls-23" transform="matrix(0.33, 0.94, -0.94, 0.33, 169.1, 103.19)">Y</text><text class="cls-23" transform="matrix(0.23, 0.97, -0.97, 0.23, 171.06, 108.8)">?</text><text class="cls-24" transform="translate(57.54 119.47) rotate(93.08)"> </text><text class="cls-24" transform="matrix(0, 1, -1, 0, 57.39, 122.67)"> </text><text class="cls-24" transform="matrix(0.05, 1, -1, 0.05, 57.39, 125.91)"> </text><text class="cls-24" transform="translate(57.57 129.12) rotate(84.08)"> </text><text class="cls-24" transform="matrix(0.16, 0.99, -0.99, 0.16, 57.92, 132.34)"> </text><text class="cls-24" transform="translate(58.43 135.51) rotate(78.05)"> </text><text class="cls-24" transform="matrix(0.26, 0.97, -0.97, 0.26, 59.11, 138.65)"> </text><text class="cls-24" transform="matrix(0.35, 0.94, -0.94, 0.35, 59.92, 141.96)">H</text><text class="cls-24" transform="translate(62.69 149.36) rotate(62.07)">O</text><text class="cls-24" transform="translate(66.7 156.9) rotate(53.3)">W</text><text class="cls-24" transform="translate(72.85 164.87) rotate(45.51)">?</text><text class="cls-24" transform="translate(77.53 169.5) rotate(40.89)"> </text><text class="cls-24" transform="translate(79.97 171.6) rotate(37.87)"> </text><text class="cls-24" transform="matrix(0.82, 0.57, -0.57, 0.82, 82.54, 173.58)"> </text><text class="cls-24" transform="matrix(0.85, 0.53, -0.53, 0.85, 85.19, 175.4)"> </text><text class="cls-24" transform="matrix(0.88, 0.48, -0.48, 0.88, 87.93, 177.09)"> </text><text class="cls-24" transform="matrix(0.9, 0.43, -0.43, 0.9, 90.76, 178.63)"> </text><text class="cls-24" transform="matrix(0.92, 0.39, -0.39, 0.92, 93.68, 180.02)"> </text><text class="cls-24" transform="translate(96.63 181.24) rotate(19.66)"> </text><text class="cls-24" transform="translate(99.83 182.45) rotate(14.42)">N</text><text class="cls-24" transform="translate(107.46 184.34) rotate(7.35)">E</text><text class="cls-24" transform="translate(114.7 185.23) rotate(0.56)">E</text><text class="cls-24" transform="translate(122.01 185.27) rotate(-6.5)">D</text><text class="cls-24" transform="translate(129.78 184.3) rotate(-13.32)">?</text><text class="cls-24" transform="matrix(0.95, -0.31, 0.31, 0.95, 136.19, 182.69)"> </text><text class="cls-24" transform="matrix(0.93, -0.36, 0.36, 0.93, 139.24, 181.69)"> </text><text class="cls-24" transform="translate(142.25 180.51) rotate(-24.08)"> </text><text class="cls-24" transform="matrix(0.89, -0.46, 0.46, 0.89, 145.19, 179.19)"> </text><text class="cls-24" transform="translate(148.05 177.7) rotate(-30.17)"> </text><text class="cls-24" transform="matrix(0.84, -0.55, 0.55, 0.84, 150.83, 176.07)"> </text><text class="cls-24" transform="translate(153.52 174.29) rotate(-36.22)"> </text><text class="cls-24" transform="matrix(0.77, -0.63, 0.63, 0.77, 156.13, 172.37)"> </text><text class="cls-24" transform="translate(158.88 170.3) rotate(-45.4)">W</text><text class="cls-24" transform="translate(165.87 163) rotate(-53.83)">H</text><text class="cls-24" transform="translate(170.49 156.6) rotate(-61.27)">A</text><text class="cls-24" transform="matrix(0.38, -0.92, 0.92, 0.38, 173.86, 150.38)">T</text><text class="cls-24" transform="translate(176.4 144.17) rotate(-73.72)">?</text></g></g></svg>